<svg width="42" height="42" viewBox="0 0 42 42" fill="none" xmlns="http://www.w3.org/2000/svg">
<circle cx="20.75" cy="20.75" r="20.75" fill="#EED484"/>
<path d="M28.4733 20.861C28.9452 20.861 29.3949 20.9204 29.8259 20.8461C30.4466 20.7421 30.9594 20.9799 31.4016 21.3738C32.5648 22.4069 33.3118 23.767 33.5756 25.3576C33.9063 27.3755 33.583 29.293 32.2638 30.8538C31.6134 31.6231 30.8516 32.2771 29.8111 32.292C29.1013 32.3032 28.3915 32.2957 27.6334 32.2957C27.5702 33.1727 27.429 34.0423 27.4625 34.9045C27.507 36.0677 26.8233 36.547 26.0503 36.9744C24.5044 37.8217 22.8358 37.9889 21.1486 37.8812C19.324 37.766 17.503 37.5913 15.6821 37.3906C14.6676 37.2791 13.7943 36.7589 12.9767 36.09C12.6534 35.8261 12.5977 35.5511 12.5605 35.1609C12.3338 32.8011 12.2372 30.4413 12.2446 28.0704C12.2483 26.3126 12.1443 24.5549 12.0811 22.7971C12.0142 21.0096 11.9362 19.2221 11.8619 17.4347C11.8247 16.5762 12.2038 16.0076 12.921 15.6583C13.9801 15.1418 15.1024 15.0526 16.2098 15.0005C18.276 14.8965 20.3459 14.863 22.4159 14.9114C23.828 14.9448 25.2476 14.982 26.6263 15.4614C27.704 15.8367 28.6219 17.2451 28.607 18.0887C28.5922 18.9286 28.5216 19.7684 28.4807 20.6083C28.4695 20.7049 28.4733 20.8015 28.4733 20.861ZM13.0882 18.8357C13.0659 19.0475 13.0399 19.1441 13.0473 19.2407C13.1588 20.9093 13.2889 22.5742 13.3892 24.2427C13.4933 25.9373 13.5825 27.6356 13.6642 29.3302C13.6977 30.0251 13.6865 30.7238 13.7014 31.4187C13.7163 32.0802 13.7571 32.7417 13.7497 33.4031C13.7423 34.1278 14.1919 35.0197 14.701 35.1386C15.2102 35.2538 15.723 35.343 16.2395 35.4025C17.4176 35.5362 18.5956 35.6775 19.7774 35.7592C20.647 35.8187 21.524 35.7741 22.3973 35.8001C23.1777 35.8261 23.9321 35.6849 24.6493 35.3616C24.8685 35.265 25.0098 34.9862 25.2142 34.8376C25.7939 34.4102 26.1321 33.8268 26.1915 33.0687C26.2733 32.0356 26.329 31.0025 26.4145 29.9694C26.5446 28.364 26.6895 26.7623 26.8307 25.1606C26.957 23.7187 27.0871 22.2769 27.2246 20.835C27.2766 20.2701 27.3547 19.709 27.4141 19.1813C25.0729 20.1661 22.6797 20.5674 20.2122 20.5488C17.7446 20.5228 15.3291 20.2441 13.0882 18.8357ZM28.2763 22.8529C28.2429 23.3954 28.2168 24.042 28.1648 24.6849C28.0385 26.2866 27.8935 27.8846 27.7746 29.4826C27.7635 29.6238 27.8712 29.8951 27.9381 29.8988C28.6331 29.9434 29.3726 30.1143 30.0155 29.9211C31.0263 29.6163 31.7175 28.7616 31.9851 27.6393C32.3269 26.1974 31.9256 24.8893 31.1452 23.7225C30.8777 23.3248 30.5618 22.9012 30.0601 22.864C29.4841 22.8194 28.9043 22.8529 28.2763 22.8529ZM14.1585 17.2934C14.1585 17.3603 14.1585 17.4235 14.1622 17.4904C16.5926 18.5681 19.1605 18.5272 21.7135 18.4715C23.2706 18.438 24.7645 17.9512 26.2547 17.4532C26.1283 17.3455 26.0057 17.2674 25.8794 17.2563C24.6158 17.1299 23.3524 16.9776 22.0851 16.9032C21.1672 16.8512 20.2456 16.9032 19.3277 16.9144C18.25 16.9292 17.1686 16.9107 16.0909 16.9776C15.4406 17.0147 14.8014 17.182 14.1585 17.2934Z" fill="#383838"/>
<path d="M18.0394 13.849C17.9093 13.9085 17.7755 13.9679 17.5414 14.0757C17.3184 13.6855 17.0137 13.2544 16.8056 12.7713C16.4934 12.0392 16.2147 11.2997 16.1998 10.4524C16.1813 9.38959 16.5863 8.52 17.0769 7.66156C17.7792 6.42406 18.5745 5.22002 18.4481 3.6332C18.4221 3.32104 18.4779 2.97915 18.8718 2.96429C19.2694 2.94942 19.6187 3.33219 19.615 3.81158C19.6113 4.6886 19.5221 5.56934 19.1431 6.35346C18.7343 7.20075 18.2698 8.0146 17.809 8.83216C17.441 9.47878 17.1698 10.1626 17.285 10.9244C17.3556 11.3963 17.5748 11.8386 17.716 12.2994C17.8684 12.7973 18.0096 13.299 18.1546 13.797C18.1211 13.8156 18.0802 13.8304 18.0394 13.849Z" fill="#383838"/>
<path d="M20.6251 13.8082C20.417 13.9122 20.2832 13.9754 20.0974 14.0683C19.198 12.8791 18.6146 11.493 18.7447 9.86529C18.7893 9.30043 19.0605 8.74672 19.291 8.21902C19.5214 7.6876 19.7889 7.16362 20.1122 6.69909C20.7143 5.83322 20.9632 4.86701 20.9595 3.80046C20.9595 3.7856 20.9558 3.77073 20.9595 3.75587C20.9855 3.42512 20.9298 3.02378 21.3683 2.96803C21.7362 2.91972 22.1301 3.29877 22.1338 3.73728C22.1524 5.18288 21.7659 6.49099 21.0078 7.69132C20.4616 8.55719 19.8224 9.4082 19.8038 10.5416C19.7964 10.8538 19.8781 11.1808 19.9673 11.4818C20.1345 12.043 20.3463 12.5893 20.521 13.1504C20.5916 13.3659 20.5953 13.6038 20.6251 13.8082Z" fill="#383838"/>
<path d="M22.6232 14.0605C21.7276 12.8899 21.1701 11.5298 21.2593 9.95785C21.3039 9.14772 21.6756 8.41563 22.0806 7.72442C22.8239 6.4572 23.6266 5.21227 23.5002 3.58086C23.4779 3.27614 23.5597 2.96769 23.9276 2.96397C24.3289 2.95654 24.6708 3.33559 24.6671 3.81498C24.6634 4.67714 24.5816 5.54301 24.21 6.31598C23.7938 7.17442 23.3255 8.00314 22.861 8.83556C22.5228 9.4413 22.2627 10.0768 22.3296 10.7977C22.363 11.1396 22.4931 11.4741 22.6009 11.8085C22.7384 12.2433 22.9056 12.6632 23.032 13.098C23.1026 13.3322 23.1174 13.5811 23.1546 13.8153C22.9688 13.9007 22.8276 13.9676 22.6232 14.0605Z" fill="#383838"/>
</svg>
